<?xml version="1.0" encoding="utf-8"?>
<!-- Generator: Adobe Illustrator 23.0.0, SVG Export Plug-In . SVG Version: 6.00 Build 0)  -->
<svg version="1.1" id="Camada_1" xmlns="http://www.w3.org/2000/svg" xmlns:xlink="http://www.w3.org/1999/xlink" x="0px" y="0px"
	 viewBox="0 0 306.5 300.53" style="enable-background:new 0 0 306.5 300.53;" xml:space="preserve">
<style type="text/css">
	.st0{fill:#FFB000;}
	.st1{fill:#FF8B00;}
	.st2{fill:none;stroke:#FFFFFF;stroke-width:5;stroke-linecap:round;stroke-miterlimit:10;}
</style>
<g>
	<path class="st0" d="M231.67,300.53V186.01c0,0,38.63-5.27,57.26-31.24c29.55-41.16,31.96-111.67-74.18-123.64
		C193.19,1.03,164.97,0.06,146.52,0C99.67-0.17,84.6,31.13,84.6,31.13S0,31.13,0,105.31c0,72.88,77.92,79.38,77.92,79.38
		l-1.14,115.85L231.67,300.53L231.67,300.53z"/>
	<rect x="77.08" y="270.92" class="st1" width="154.58" height="29.61"/>
	<path class="st2" d="M241.09,66.54c0,0,41.65,9.54,23.43,57.26"/>
	<line class="st2" x1="207.25" y1="197.56" x2="207.25" y2="247.88"/>
</g>
</svg>
