<?xml version="1.0" encoding="utf-8"?>
<!-- Generator: Adobe Illustrator 23.0.0, SVG Export Plug-In . SVG Version: 6.00 Build 0)  -->
<svg version="1.1" id="Camada_1" xmlns="http://www.w3.org/2000/svg" xmlns:xlink="http://www.w3.org/1999/xlink" x="0px" y="0px"
	 viewBox="0 0 694.59 523.76" style="enable-background:new 0 0 694.59 523.76;" xml:space="preserve">
<style type="text/css">
	.st0{fill:#FFB000;}
	.st1{fill:#FF8B00;}
	.st2{fill:none;stroke:#FFFFFF;stroke-width:5;stroke-linecap:round;stroke-miterlimit:10;}
	.st3{font-family:'HoneymoonPersonalUse';}
	.st4{font-size:52.2765px;}
	.st5{font-size:153.7154px;}
</style>
<g>
	<g>
		<path class="st0" d="M429.12,312.42V197.9c0,0,38.63-5.27,57.26-31.24c29.55-41.16,31.96-111.67-74.18-123.64
			c-21.56-30.1-49.78-31.07-68.23-31.13c-46.85-0.17-61.92,31.13-61.92,31.13s-84.6,0-84.6,74.18c0,72.88,77.92,79.38,77.92,79.38
			l-1.14,115.85H429.12z"/>
		<rect x="274.53" y="282.81" class="st1" width="154.58" height="29.61"/>
		<path class="st2" d="M438.54,78.43c0,0,41.65,9.54,23.43,57.26"/>
		<line class="st2" x1="404.7" y1="209.45" x2="404.7" y2="259.77"/>
	</g>
	<text transform="matrix(1 0 0 1 420.647 503.3463)" class="st1 st3 st4">restaurante</text>
	<text transform="matrix(1 0 0 1 21.5359 459.4107)" class="st1 st3 st5">Bom Sabor</text>
</g>
</svg>
